<svg viewBox="0 0 2599 789" xmlns="http://www.w3.org/2000/svg" xml:space="preserve" style="fill-rule:evenodd;clip-rule:evenodd;stroke-linejoin:round;stroke-miterlimit:2"><path d="M665.642 678.892c-74.667 72.9-166.938 109.35-276.825 109.35-109.884 0-202.167-36.45-276.821-109.35C37.325 605.983 0 515.117 0 406.292 0 297.467 37.325 206.6 111.996 133.696c74.654-72.9 166.937-109.35 276.821-109.35 109.887 0 202.158 36.45 276.825 109.35 74.65 72.904 111.991 163.771 111.991 272.596 0 108.825-37.341 199.691-111.991 272.6Zm1802.508 0c-74.67 72.9-166.94 109.35-276.83 109.35-109.89 0-202.17-36.45-276.82-109.35-74.67-72.909-112-163.775-112-272.6 0-108.825 37.33-199.692 112-272.596 74.65-72.9 166.93-109.35 276.82-109.35 109.89 0 202.16 36.45 276.83 109.35 74.65 72.904 112 163.771 112 272.596 0 108.825-37.35 199.691-112 272.6ZM1524.62 42.308h124.68v738.538h-124.68V42.308ZM930.846 780.846V42.308h124.664V662.5h337.05v118.346H930.846Zm-356.6-564.209c-50.363-52.112-112.179-78.187-185.429-78.187-73.263 0-135.067 26.075-185.43 78.187-50.366 52.138-75.545 115.346-75.545 189.655 0 74.329 25.179 137.537 75.545 189.658 50.363 52.129 112.167 78.179 185.43 78.179 73.25 0 135.066-26.05 185.429-78.179 50.358-52.121 75.546-115.329 75.546-189.658 0-74.309-25.188-137.517-75.546-189.655Zm1802.504 0c-50.37-52.112-112.17-78.187-185.43-78.187-73.27 0-135.07 26.075-185.43 78.187-50.37 52.138-75.55 115.346-75.55 189.655 0 74.329 25.18 137.537 75.55 189.658 50.36 52.129 112.16 78.179 185.43 78.179 73.26 0 135.06-26.05 185.43-78.179 50.35-52.121 75.54-115.329 75.54-189.658 0-74.309-25.19-137.517-75.54-189.655Z" style="fill:#b34f9a;fill-rule:nonzero"/><path d="M683.921 654.533c-74.671 72.9-166.938 109.355-276.829 109.355-109.879 0-202.163-36.455-276.817-109.355-74.671-72.9-111.996-163.762-111.996-272.591 0-108.821 37.325-199.692 111.996-272.592C204.929 36.45 297.213 0 407.092 0 516.983 0 609.25 36.45 683.921 109.35c74.646 72.9 111.991 163.771 111.991 272.592 0 108.829-37.345 199.691-111.991 272.591Zm1802.509 0c-74.67 72.9-166.94 109.355-276.84 109.355-109.88 0-202.16-36.455-276.81-109.355-74.68-72.9-112-163.762-112-272.591 0-108.821 37.32-199.692 112-272.592C2007.43 36.45 2099.71 0 2209.59 0c109.9 0 202.17 36.45 276.84 109.35 74.65 72.9 112 163.771 112 272.592 0 108.829-37.35 199.691-112 272.591ZM1542.9 17.958h124.68v738.538H1542.9V17.958ZM949.125 756.496V17.958h124.665v620.2h337.05v118.338H949.125Zm-356.6-564.208c-50.362-52.113-112.179-78.184-185.433-78.184-73.263 0-135.067 26.071-185.429 78.184-50.367 52.137-75.546 115.345-75.546 189.654 0 74.329 25.179 137.537 75.546 189.662 50.362 52.117 112.166 78.183 185.429 78.183 73.254 0 135.071-26.066 185.433-78.183 50.358-52.125 75.546-115.333 75.546-189.662 0-74.309-25.188-137.517-75.546-189.654Zm1802.495 0c-50.36-52.113-112.17-78.184-185.43-78.184s-135.06 26.071-185.43 78.184c-50.36 52.137-75.54 115.345-75.54 189.654 0 74.329 25.18 137.537 75.54 189.662 50.37 52.117 112.17 78.183 185.43 78.183s135.07-26.066 185.43-78.183c50.36-52.125 75.55-115.333 75.55-189.662 0-74.309-25.19-137.517-75.55-189.654Z" style="fill:#14ac9f;fill-rule:nonzero"/></svg>